<svg xmlns="http://www.w3.org/2000/svg" width="38" height="24" viewBox="0 0 38 24"><path fill="#fff" d="M15.08 14l1.79 5.68c.07-.15.11-.21.13-.29l.88-2.48c.07-.17.03-.29-.05-.44-.22-.38-.45-.76-.58-1.17-.22-.67.06-1.15.75-1.26.4-.06.83-.01 1.21.08.45.12.63.52.56.97-.09.53-.36.96-.63 1.4-.06.09-.11.22-.09.3.32.94.66 1.88 1.06 2.83l1.76-5.58c.76.4 1.48.81 2.23 1.16a11 11 0 0 0 1.92.69 2.39 2.39 0 0 1 1.91 2.1c.17 1.06.12 2.12-.03 3.19-.03.21-.14.34-.33.44a17.2 17.2 0 0 1-4.76 1.68c-1.87.39-3.77.52-5.67.39a19.12 19.12 0 0 1-7.52-1.94c-.41-.21-.59-.49-.59-.91 0-.93-.08-1.86.02-2.77.12-1.13.75-1.88 1.92-2.17 1.37-.35 2.64-.98 3.84-1.73l.27-.17M14 6.49c.01-.99.06-1.97.43-2.9a3.98 3.98 0 0 1 3.3-2.53 4.98 4.98 0 0 1 2.17.14 3.8 3.8 0 0 1 2.79 2.81c.51 2 .45 4.01-.32 5.95a3.79 3.79 0 0 1-2.98 2.53c-2.44.42-4.23-.7-4.98-3.07A9.43 9.43 0 0 1 14 6.49"/><path fill="#fff" d="M14.26 13.41a15.8 15.8 0 0 1-3.88 1.67c-1.18.3-1.8 1.09-2.05 2.23-.08.36-.11.72-.16 1.12h-1.3c-1.96-.05-3.86-.4-5.68-1.18-.3-.12-.6-.26-.87-.43-.12-.07-.27-.23-.27-.35-.03-.81-.09-1.63-.01-2.43.07-.82.56-1.37 1.4-1.58a10.6 10.6 0 0 0 2.94-1.3l.26-.16 1.37 4.35.14-.31c.21-.59.42-1.18.61-1.78.04-.11.01-.28-.04-.4-.13-.32-.32-.61-.43-.94-.13-.43.07-.77.51-.87.25-.06.53-.07.77-.02.58.1.79.47.59 1.03-.1.28-.27.55-.41.82-.04.08-.1.18-.08.25.25.72.51 1.44.83 2.16l1.36-4.27c.36.21.69.43 1.04.58.75.32 1.5.62 2.27.89.48.17.87.42 1.09.92M4 4.99c0-.57.04-1.36.37-2.1C4.93 1.61 5.98 1.05 7.31 1c2.05-.07 3.43 1.27 3.54 3.32.05.99.03 1.96-.23 2.92-.06.22-.14.44-.23.66-.56 1.32-1.6 1.97-3.07 1.95A3.03 3.03 0 0 1 4.45 7.8 7.3 7.3 0 0 1 4 4.99M23 13.41c1.26.7 2.51 1.33 3.88 1.67 1.19.3 1.81 1.09 2.06 2.23.07.36.1.72.16 1.12h1.29a15.15 15.15 0 0 0 6.56-1.61c.12-.07.26-.23.26-.35.03-.81.09-1.63.02-2.43-.08-.82-.57-1.37-1.41-1.58a10.6 10.6 0 0 1-2.94-1.3l-.25-.16-1.38 4.35c-.07-.15-.11-.23-.13-.31-.21-.59-.43-1.18-.62-1.78-.04-.11-.01-.28.05-.4.13-.32.32-.61.42-.94.14-.43-.07-.77-.51-.87a1.82 1.82 0 0 0-.77-.02c-.58.1-.79.47-.59 1.03.11.28.28.55.41.82.04.08.1.18.08.25-.24.72-.51 1.44-.83 2.16l-1.35-4.27c-.37.21-.69.43-1.05.58-.74.32-1.5.62-2.26.89-.49.17-.87.42-1.1.92M33.43 7.8a3.05 3.05 0 0 1-2.87 2.05c-1.48.02-2.51-.63-3.08-1.95a5.75 5.75 0 0 1-.23-.66 9.24 9.24 0 0 1-.23-2.92C27.14 2.27 28.51.93 30.56 1c1.34.05 2.38.61 2.94 1.89.33.74.37 1.53.37 2.1a7.13 7.13 0 0 1-.44 2.81"/></svg>