<svg xmlns="http://www.w3.org/2000/svg" width="28" height="32" viewBox="0 0 28 32"><path fill="#c7c8c9" d="M3.03 0A3.05 3.05 0 0 0 0 3.05v21.33a3.05 3.05 0 0 0 3.03 3.05H9.1L13.65 32l4.55-4.57h6.06a3.05 3.05 0 0 0 3.03-3.05V3.05A3.05 3.05 0 0 0 24.26 0zm9.1 24.38v-3.05h3.03v3.05zm4.85-10.36c-1.21 1.07-1.82 1.98-1.82 4.27h-3.03v-.77c0-1.67.61-3.2 1.82-4.26l1.82-1.98c.61-.46.91-1.22.91-2.14a3.04 3.04 0 0 0-3.03-3.04 3.05 3.05 0 0 0-3.04 3.04H7.58a6.1 6.1 0 0 1 6.07-6.09 6.1 6.1 0 0 1 6.06 6.09c0 1.37-.6 2.59-1.36 3.51z"/></svg>