<svg xmlns="http://www.w3.org/2000/svg" width="34" height="32" viewBox="0 0 34 32"><path fill="#fff" d="M33 17.12l-.57 2.33-.35 1.51c-.11.5-.49.75-1 .66-.66-.12-1.31-.26-1.96-.4-.09-.01-.17-.08-.23-.14l-2.69-2.55a.38.38 0 0 1-.11-.28c.36-3.88-2.14-7.12-6.08-7.88a1.17 1.17 0 0 1-.33-.11c-3.56-1.8-8.06.37-8.7 4.21-.15.86-.11 1.72.09 2.58.1.42.02.88.07 1.31a7.22 7.22 0 0 0 5.57 6.23c.81.19 1.63.29 2.46.2.26-.03.45.02.63.2.61.58 1.25 1.12 1.84 1.71.84.84 1.65 1.71 2.51 2.6-.25.13-.49.28-.76.39-.35.13-.71-.01-.93-.34-.33-.47-.64-.95-.95-1.43-.34-.5-.86-.72-1.47-.62-.61.11-1.22.19-1.82.31-.56.11-.93.43-1.05.99a75.1 75.1 0 0 0-.35 1.6c-.14.66-.5.89-1.16.75l-4.22-.92c-.55-.12-.77-.46-.65-1l.39-1.78c.11-.52-.06-.94-.5-1.25-.53-.37-1.07-.74-1.63-1.08a1.3 1.3 0 0 0-1.44-.01l-1.5.93c-.52.32-.96.22-1.3-.28l-2.32-3.54c-.32-.49-.24-.87.26-1.19.49-.31.99-.6 1.47-.92.49-.31.68-.78.6-1.33-.09-.59-.19-1.18-.31-1.77a1.31 1.31 0 0 0-1.03-1.06c-.57-.14-1.14-.24-1.71-.36-.62-.12-.87-.44-.74-1.03l.98-4.34c.11-.47.48-.68.98-.58l1.83.37c.57.11 1.03-.05 1.36-.52L7.3 7.72c.3-.43.31-.87.03-1.3L6.3 4.86c-.26-.39-.2-.79.2-1.05l3.83-2.39c.44-.28.89-.17 1.18.25.34.49.66.99.99 1.48.3.46.72.67 1.29.57.65-.11 1.31-.19 1.95-.32.58-.13.93-.51 1.06-1.07.14-.56.25-1.13.38-1.69.11-.5.47-.72.99-.61l4.41.95c.53.11.76.46.65.97l-.39 1.78c-.12.53.05.96.5 1.27.51.36 1.04.71 1.57 1.06.48.31.96.32 1.46.02l1.54-.93c.52-.31.95-.21 1.28.28l2.29 3.49c.4.62.31.99-.34 1.38l-1.35.81c-.51.31-.75.84-.65 1.4l.3 1.67c.1.61.47.98 1.06 1.14.57.16 1.16.28 1.73.44.27.08.51.25.77.37z"/><path fill="#fff" d="M28.95 28.56c-.02.68.53 1.28 1.18 1.29.63.01 1.22-.57 1.23-1.19 0-.64-.54-1.19-1.17-1.2-.62-.02-1.22.51-1.24 1.1zm-13.33-9.99a2.87 2.87 0 0 0 3.03.67 2.79 2.79 0 0 0 2-2.34c.14-.94-.2-1.75-.87-2.42-.69-.7-1.4-1.37-2.11-2.06l-.26-.27c.51-.05.95-.12 1.4-.14 3.03-.17 6.54 2.49 5.97 6.35-.08.55.07.97.49 1.38 1.58 1.54 3.12 3.11 4.7 4.65.72.71 1.5 1.37 2.23 2.07.86.82 1.13 1.82.88 2.97-.36 1.73-3.01 3.07-4.94 1.39-.89-.78-1.73-1.61-2.58-2.43-.6-.57-1.18-1.16-1.77-1.73-.99-.96-2-1.9-2.98-2.86-.34-.34-.72-.42-1.18-.37a6.44 6.44 0 0 1-3.41-.56 5.5 5.5 0 0 1-2.95-6.6c.81.8 1.56 1.57 2.35 2.3z"/></svg>