<svg xmlns="http://www.w3.org/2000/svg" width="33" height="32" viewBox="0 0 33 32"><path fill="#fff" d="M15.88 7.7c-2.34-.15-4.56-.61-6.36-2.3-.2-.19-.83-.17-1.1 0-1.35.85-1.65 1.63-1.36 3.35l.09.72-.83-.08c.26.83.32 1.65.75 2.18.55.7.48 1.25 2.14 1.82.79.27.94.11 1.45-.21.25-.16.66-.28.95-.15.5.22.57.5.58.75.03.41-.24.73-.49.77-.45.09-.96.02-1.41-.1-.76-.2-1.5-.5-2.32-.78 1.36 2.53 4.12 3.51 5.87 1.82a10.4 10.4 0 0 0 3.14-5.08l.02-.19c.06-.69-.15-1.06-.94-.72l.21-1.71c-.21-.05-.3-.08-.39-.09zM6.06 6.64a4.62 4.62 0 0 1 3.55-4.77 6.8 6.8 0 0 1 4.16.05c2.6.86 3.74 2.92 3.33 6.03-.06.5.02.84.33 1.33.32.5.17 1.49-.09 2.13a13.9 13.9 0 0 1-1.72 2.97c-2.38 3.32-5.76 3.4-8.02.01a10.2 10.2 0 0 1-.54-.9c-.33-.63-.56-1.18-1.49-1.32-1.2-.17-2-2.93-1.32-3.93.24-.36.46-.85.43-1.25-.22-2.89.9-5.03 3.55-6.2 2.88-1.27 5.7-1.04 8.23.92a4.9 4.9 0 0 1 2.06 4.33c-.03.48.04.96-.02 1.44-.05.32-.04 1.28-.38 1.23-.46.05-.24-.94-.32-1.28-.05-.21-.01-.45-.01-.67 0-3.18-1.73-5.33-4.9-5.87-2.61-.46-4.9.23-6.56 2.43a4.56 4.56 0 0 0-.17 5.32c-.03-.67-.1-1.34-.1-2zM11.74 27.37c-1.15 0-2.3-.05-3.44-.15a72.48 72.48 0 0 1-6.75-.91 4 4 0 0 1-1.01-.34.85.85 0 0 1-.54-.82c.01-2.77 1.05-4.99 3.56-6.33 1.03-.55 2.14-.94 3.21-1.41l.91-.41c.4 1.42.75 2.85 1.2 4.24a14.67 14.67 0 0 0 2.46 4.42l.05.06c.15.17.25.26.35.26M12.16 25.04l-1.14-2.2c-.03-.06-.02-.14 0-.21l.31-1.37c.04-.18.13-.26.32-.26.37.01.75.01 1.12 0 .18 0 .27.08.31.25l.32 1.42c.01.07 0 .16-.03.23l-1.11 2.05-.1.09M12.17 20.92H12c-.78-.01-.64.13-.81-.68-.06-.31-.11-.62-.18-.92-.04-.22.05-.32.26-.32h1.84c.21 0 .29.11.24.33l-.25 1.32c-.04.21-.14.29-.36.28h-.57zM19.03 22.5a4.52 4.52 0 0 0 4.43 4.58 4.5 4.5 0 0 0 4.55-4.49 4.5 4.5 0 0 0-8.98-.09zm5.44-8.41c.37.04.62.32.64.72v.74c0 .23.12.36.34.45.46.18.93.37 1.38.58.21.09.37.08.52-.08.19-.18.36-.37.55-.54.29-.27.64-.31.93-.05.46.41.92.86 1.34 1.32.29.34.28.75-.08 1.03-.59.46-.75.94-.29 1.59.16.23.22.55.32.83.08.22.23.32.46.32h.71c.41.02.71.26.73.66.03.62.03 1.24 0 1.86-.02.39-.33.63-.77.66l-.68.01c-.25-.01-.38.11-.46.35-.16.44-.34.87-.55 1.29-.12.26-.11.44.09.63.17.15.32.32.48.48.28.29.34.65.07.95-.42.48-.87.93-1.35 1.36a.66.66 0 0 1-.98-.08c-.47-.63-.98-.75-1.64-.3-.22.16-.51.22-.77.31-.24.08-.35.23-.35.47v.71c-.01.35-.21.67-.55.69-.7.04-1.4.04-2.1 0-.3-.01-.51-.37-.53-.75a6.83 6.83 0 0 1 0-.64c.01-.25-.1-.39-.33-.48a33.9 33.9 0 0 1-1.39-.58c-.2-.1-.36-.08-.52.08l-.5.5c-.3.29-.67.35-.98.08-.48-.44-.94-.9-1.37-1.38-.24-.26-.18-.66.08-.94.16-.18.34-.35.52-.52.15-.16.16-.32.07-.53-.2-.44-.39-.89-.57-1.35-.09-.25-.23-.37-.5-.36h-.64c-.45-.02-.73-.21-.76-.66a13.1 13.1 0 0 1-.01-1.88c.02-.4.35-.63.75-.64h.68c.24 0 .39-.11.47-.34.18-.47.38-.93.58-1.39.09-.2.08-.37-.08-.53-.18-.18-.37-.35-.54-.54-.25-.28-.29-.66-.04-.93.42-.47.87-.92 1.33-1.34.29-.27.66-.23.96.03.19.16.35.34.53.52.16.16.32.19.54.09.45-.2.9-.39 1.36-.56.25-.09.37-.24.36-.5l-.01-.61c.01-.47.27-.77.73-.82.29-.04.59-.05.91-.08l.91.09z"/></svg>