<svg xmlns="http://www.w3.org/2000/svg" width="34" height="27" viewBox="0 0 34 27"><path fill="#fff" d="M10.52 23.25c.01.38.22.64.52.63.32-.01.51-.26.51-.66 0-.27-.02-.55.01-.83.01-.08.12-.2.21-.22.37-.11.75-.16 1.11-.28a3.5 3.5 0 0 0 2.46-3.44c-.02-1.51-.92-2.67-2.46-3.17-.37-.12-.74-.22-1.1-.35-.09-.04-.22-.16-.22-.24l-.01-3.17c.4.03.91.41 1.09.78.11.22.19.45.27.68.21.56.74.85 1.27.7.55-.16.89-.71.73-1.28a3.13 3.13 0 0 0-1.99-2.24c-.43-.16-.9-.24-1.38-.36V8.79c0-.4-.18-.61-.5-.61s-.51.21-.51.59v1.07c-.31.05-.57.09-.83.15-1.61.37-2.59 1.5-2.65 3.02-.05 1.28.37 2.31 1.52 2.94.51.28 1.08.45 1.63.65.22.08.35.16.33.43-.03.6 0 1.2 0 1.8v1.69a2.1 2.1 0 0 1-1.34-1.09c-.15-.34-.26-.7-.4-1.05-.18-.47-.52-.68-1.08-.65-.42.02-.85.34-.93.75-.05.25-.05.53.01.79a3.44 3.44 0 0 0 1.96 2.42c.54.25 1.14.38 1.77.59v.97zm10.54-7.27a10.03 10.03 0 1 1 0 0zM19.72 4.11c.35-.08.71-.13 1.07-.2.24-.06.5-.14.52-.44.02-.31-.24-.44-.47-.47-.41-.06-.84-.1-1.23-.04-1.19.19-2.31.53-2.78 1.87-.42 0-.86-.02-1.29.01-.12.01-.23.15-.34.23.12.08.22.19.34.24.11.04.24.01.35.01h.97c.21.86.82 1.31 1.59 1.58.85.31 1.73.39 2.62.32 1.28-.1 2.43-.45 3.04-1.75.04-.08.21-.14.31-.14l2.91-.01c.07 0 .14.02.2.03l.04.09c-.23.14-.45.31-.7.4-.29.11-.62.14-.93.22-.25.07-.57.12-.58.46 0 .35.33.42.59.47.81.17 1.54-.1 2.26-.42.53-.24.88-.66.99-1.25h1.08c.23-.01.57.04.56-.26-.01-.27-.35-.24-.58-.25h-1.07c-.2-.81-.75-1.23-1.46-1.47a6.45 6.45 0 0 0-2.76-.23c-1.1.1-1.99.56-2.55 1.57-.05.08-.21.13-.32.13h-3.58c.34-.45.76-.6 1.2-.7zm-6.04-.88a6.96 6.96 0 0 1 3.07-2.11 17.25 17.25 0 0 1 7.6-1.07c1.69.1 3.34.42 4.92 1.05 1.09.44 2.11 1 2.92 1.9 1.16 1.28 1.18 2.82.03 4.12a8.04 8.04 0 0 1-3.58 2.15 18.38 18.38 0 0 1-7.83.75c-.37-.03-.58-.18-.78-.48a10.65 10.65 0 0 0-6.76-4.42l-.15-.04-.12-.04c.01-.7.27-1.29.68-1.81zM20 21.36l1.44-3.39c3.82.13 7.55-.39 10.76-2.97.42.65.55 1.37.34 2.15-.2.74-.64 1.32-1.21 1.81a9.75 9.75 0 0 1-4 1.97c-2.43.65-4.89.75-7.33.43"/><path fill="#fff" d="M32.9 8c.33.77.32 1.48.01 2.19-.32.74-.87 1.3-1.52 1.77a10.65 10.65 0 0 1-3.77 1.67c-1.78.45-3.59.61-5.42.53-.2-.01-.28-.08-.34-.28-.26-.9-.57-1.78-.86-2.68l.23.01c3.08.22 6.09-.05 8.95-1.31A8.17 8.17 0 0 0 32.9 8"/><path fill="#fff" d="M32.83 11c.4.96.27 1.83-.26 2.65a5.38 5.38 0 0 1-1.87 1.71 12.4 12.4 0 0 1-4.83 1.58c-1.18.15-2.38.14-3.57.21l-.3-.02v-2.86h.51c2.37.02 4.7-.25 6.93-1.1a8.6 8.6 0 0 0 3.27-2.07c.02-.03.06-.05.12-.1M12 17c1.26.32 1.79.9 1.72 1.88-.06.84-.78 1.54-1.72 1.64zM10.41 14.04c-.94-.2-1.44-.77-1.41-1.59.03-.76.59-1.34 1.41-1.45zM18 5h3.58c-.45.78-1.14.92-1.92.87C19 5.83 18.38 5.69 18 5M24 4.71c.5-1.02 2.78-.87 3.03 0z"/></svg>