<svg xmlns="http://www.w3.org/2000/svg" width="34" height="32" viewBox="0 0 34 32"><path fill="#fff" d="M19.88 2.27H5.52l.45.27c1.7.96 3.39 1.94 5.1 2.89.53.29.77.7.76 1.31v17.14h8.03v-6.15h2.25V24.79c0 .95-.41 1.36-1.35 1.36h-8.93v4.1c0 1.08-.87 1.59-1.81 1.06l-8.73-4.95c-.1-.05-.18-.12-.28-.16C.18 25.92 0 25.31 0 24.48c.02-7.73.01-15.47.01-23.2C.01.46.47 0 1.28 0h19.56c.79 0 1.26.43 1.26 1.2l.01 8.8-.02.21h-2.21z"/><path fill="#fff" d="M25.57 12.6c0-.95-.01-1.86.01-2.76.01-.21.07-.46.19-.62.22-.3.61-.28.98-.02l5.67 4.12c.12.09.25.17.37.27.45.35.46.83 0 1.17-.9.67-1.81 1.32-2.72 1.98-1.09.79-2.18 1.57-3.26 2.37-.27.2-.54.34-.88.16-.31-.17-.36-.47-.36-.79v-2.73h-.47c-1.83 0-3.65.01-5.48 0-1.1-.01-1.84-.97-1.56-1.99.19-.71.81-1.16 1.62-1.16H25.57"/></svg>