<svg xmlns="http://www.w3.org/2000/svg" width="19" height="19" viewBox="0 0 19 19"><path fill="#797b7c" d="M16.25 9.5c0-.38 0-.67-.09-.95l1.98-1.61c.19-.19.19-.39.09-.58l-1.88-3.32c-.1-.1-.29-.19-.57-.1l-2.36.96a9.04 9.04 0 0 0-1.6-.96L11.44.47c.1-.28-.18-.47-.37-.47H7.3c-.19 0-.47.19-.47.38l-.38 2.56c-.57.2-1.04.58-1.6.96l-2.27-.96c-.28-.09-.47 0-.66.2L.04 6.46c-.1.09 0 .38.19.57l1.98 1.52c0 .28-.1.57-.1.95s0 .66.1.95L.23 12.07c-.19.19-.19.37-.1.56l1.89 3.33c.09.1.28.19.56.1l2.36-.96c.47.38 1.04.67 1.6.96l.38 2.47c0 .18.19.37.47.37h3.77c.19 0 .47-.19.47-.37l.38-2.47a9.04 9.04 0 0 0 1.6-.96l2.36.96c.19.09.47 0 .57-.2l1.88-3.32c.1-.19.1-.47-.09-.57l-2.17-1.52c0-.29.09-.57.09-.95zm-10.37 0a3.35 3.35 0 0 1 3.3-3.32c1.79 0 3.3 1.51 3.3 3.32 0 1.8-1.51 3.32-3.3 3.32a3.35 3.35 0 0 1-3.3-3.32z"/></svg>