<svg xmlns="http://www.w3.org/2000/svg" width="58" height="22" viewBox="0 0 58 22"><path fill="#f9ae17" d="M45.25 14.92c0 1.44 1.65 2.14 3.34 2.14 1.56 0 3.23-.7 3.23-1.97 0-1.99-2.34-2.08-3.88-2.16-3.86-.24-7.72-1.76-7.72-6.11 0-4.53 3.88-6.82 8.2-6.82 4.05 0 8.19 2.29 8.11 6.82h-5.16c-.03-1.44-1.39-2.02-2.87-2.02-1.23 0-2.86.32-2.86 1.91 0 1.39 1.21 1.74 3.23 1.93 4.49.38 8.4 1.44 8.4 6.49 0 4.38-4.32 6.67-8.62 6.67-4.46 0-8.74-2.21-8.65-6.88zM22.95 1.01h-.08c-.96 0-1.74.71-1.87 1.63v19.21h5.51v-5.38h3.79c5.01 0 7.57-3.82 7.57-7.64.09-3.92-2.51-7.82-7.57-7.82-2.47-.02-4.9 0-7.35 0zm3.47 10.72V5.75h3.88c1.5 0 2.3 1.45 2.3 2.96 0 1.52-.84 3.02-2.3 3.02zM13.75 14.45a7.22 7.22 0 0 0 3.12-6.07c0-3.66-2.49-7.37-7.59-7.37-2.45-.02-4.86 0-7.31 0h-.08C.85 1.01 0 1.85 0 2.87v19h5.51V4.76c.45.11.84.41 1.1.28.09-.04.11-.28.18-.36.06-.11.19-.35.3-.39.2-.11.65-.09.85-.02.15.04.39.23.5.34.13.17.17.67.32.84.2.19.96.36.98.43.02.04.35.23.48.27.13.07.45.07.58.18.13.08.33.51.35.53l.17.28a3.1 3.1 0 0 0 .96.77l.58.39c.09.06.3.17.33.28.02.06-.03.17-.05.23-.04.09-.17.22-.24.3-.04.07-.1.22-.15.28l-.26.34c-.06.07-.17.2-.24.26-.08.07-.28.13-.39.15a5.1 5.1 0 0 1-.5.02l-.56.07c-.11.02-.32.1-.41.17-.17.08-.46.34-.61.45-.09.06-.24.19-.32.23-.11.05-.42 0-.48 0-.07 0-.37.18-.46.28-.1.13-.28.41-.37.56l-.28.6-.21.69c-.03.04-.07.19-.11.21-.05.02-.15-.06-.2-.04-.15.06-.21.41-.28.56-.04.1-.04.25.09.47.13.21 1.26.98 1.26.98l3.62 6.52h5.83v-.77z"/><path fill="#f9ae17" d="M10.31 9.19c-.22-.04-.37.26-.29.41.11.19.33.41.55.43.3.02.65.02.93-.07.15-.04.43-.3.15-.32-.15-.02-.3.04-.45.04-.11 0-.48-.04-.35-.25.09-.11.41 0 .52.02.19.02.82.15.61-.22-.07-.1-.24-.08-.29-.19-.08-.17-.08-.47-.21-.6-.07-.06-.18-.08-.24-.13-.11-.08-.2-.17-.3-.23-.18-.11-.52-.13-.57.1-.06.18.54 1.12-.06 1.01-.02-.02.04 0 0 0M12.41 8.54c.06-.02.13-.06.13-.13-.02-.1-.15-.02-.22-.06-.15-.06-.04-.3-.17-.34-.24-.09-.22.68.26.53.04-.02-.02 0 0 0M10.43 6.02c-.15-.07-.31.06-.39.17-.13.17.11.28.24.34.13.07.3.11.39-.06.11-.22-.03-.37-.24-.45-.05-.02.11.02 0 0"/></svg>