<svg xmlns="http://www.w3.org/2000/svg"><symbol id="icon_icon-bell" viewBox="0 0 17 19"><path d="M10.5 17.1h-4c0 1.05.9 1.9 2 1.9s2-.85 2-1.9zm4.5-3.8l2 1.9v.95H0v-.95l2-1.9V8.08c0-2.95 2.1-5.32 5-5.99v-.66C7 .67 7.7 0 8.5 0S10 .67 10 1.43v.66c2.9.67 5 3.04 5 5.99z"/></symbol><symbol id="icon_icon-search" viewBox="0 0 16 16"><path d="M6.72 11.08a4.3 4.3 0 0 1 0-8.62 4.3 4.3 0 1 1 0 8.62zm8.81 2.82l-3.28-3.29A6.78 6.78 0 0 0 6.72 0 6.75 6.75 0 0 0 0 6.77a6.75 6.75 0 0 0 10.53 5.58l3.27 3.28c.22.24.53.37.86.37a1.23 1.23 0 0 0 .87-2.1z"/></symbol><symbol id="icon_icon-settings" viewBox="0 0 19 19"><path d="M16.25 9.5c0-.38 0-.67-.09-.95l1.98-1.61c.19-.19.19-.39.09-.58l-1.88-3.32c-.1-.1-.29-.19-.57-.1l-2.36.96a9.04 9.04 0 0 0-1.6-.96L11.44.47c.1-.28-.18-.47-.37-.47H7.3c-.19 0-.47.19-.47.38l-.38 2.56c-.57.2-1.04.58-1.6.96l-2.27-.96c-.28-.09-.47 0-.66.2L.04 6.46c-.1.09 0 .38.19.57l1.98 1.52c0 .28-.1.57-.1.95s0 .66.1.95L.23 12.07c-.19.19-.19.37-.1.56l1.89 3.33c.09.1.28.19.56.1l2.36-.96c.47.38 1.04.67 1.6.96l.38 2.47c0 .18.19.37.47.37h3.77c.19 0 .47-.19.47-.37l.38-2.47a9.04 9.04 0 0 0 1.6-.96l2.36.96c.19.09.47 0 .57-.2l1.88-3.32c.1-.19.1-.47-.09-.57l-2.17-1.52c0-.29.09-.57.09-.95zm-10.37 0a3.35 3.35 0 0 1 3.3-3.32c1.79 0 3.3 1.51 3.3 3.32 0 1.8-1.51 3.32-3.3 3.32a3.35 3.35 0 0 1-3.3-3.32z"/></symbol><symbol id="icon_icon-ui-1" viewBox="0 0 33 32"><path d="M15.88 7.7c-2.34-.15-4.56-.61-6.36-2.3-.2-.19-.83-.17-1.1 0-1.35.85-1.65 1.63-1.36 3.35l.09.72-.83-.08c.26.83.32 1.65.75 2.18.55.7.48 1.25 2.14 1.82.79.27.94.11 1.45-.21.25-.16.66-.28.95-.15.5.22.57.5.58.75.03.41-.24.73-.49.77-.45.09-.96.02-1.41-.1-.76-.2-1.5-.5-2.32-.78 1.36 2.53 4.12 3.51 5.87 1.82a10.4 10.4 0 0 0 3.14-5.08l.02-.19c.06-.69-.15-1.06-.94-.72l.21-1.71c-.21-.05-.3-.08-.39-.09zM6.06 6.64a4.62 4.62 0 0 1 3.55-4.77 6.8 6.8 0 0 1 4.16.05c2.6.86 3.74 2.92 3.33 6.03-.06.5.02.84.33 1.33.32.5.17 1.49-.09 2.13a13.9 13.9 0 0 1-1.72 2.97c-2.38 3.32-5.76 3.4-8.02.01a10.2 10.2 0 0 1-.54-.9c-.33-.63-.56-1.18-1.49-1.32-1.2-.17-2-2.93-1.32-3.93.24-.36.46-.85.43-1.25-.22-2.89.9-5.03 3.55-6.2 2.88-1.27 5.7-1.04 8.23.92a4.9 4.9 0 0 1 2.06 4.33c-.03.48.04.96-.02 1.44-.05.32-.04 1.28-.38 1.23-.46.05-.24-.94-.32-1.28-.05-.21-.01-.45-.01-.67 0-3.18-1.73-5.33-4.9-5.87-2.61-.46-4.9.23-6.56 2.43a4.56 4.56 0 0 0-.17 5.32c-.03-.67-.1-1.34-.1-2zm5.68 20.73c-1.15 0-2.3-.05-3.44-.15a72.48 72.48 0 0 1-6.75-.91 4 4 0 0 1-1.01-.34.85.85 0 0 1-.54-.82c.01-2.77 1.05-4.99 3.56-6.33 1.03-.55 2.14-.94 3.21-1.41l.91-.41c.4 1.42.75 2.85 1.2 4.24a14.67 14.67 0 0 0 2.46 4.42l.05.06c.15.17.25.26.35.26m.42-.94l-1.14-2.2c-.03-.06-.02-.14 0-.21l.31-1.37c.04-.18.13-.26.32-.26.37.01.75.01 1.12 0 .18 0 .27.08.31.25l.32 1.42c.01.07 0 .16-.03.23l-1.11 2.05-.1.09m.01-4.12H12c-.78-.01-.64.13-.81-.68-.06-.31-.11-.62-.18-.92-.04-.22.05-.32.26-.32h1.84c.21 0 .29.11.24.33l-.25 1.32c-.04.21-.14.29-.36.28h-.57zm6.86 1.58a4.52 4.52 0 0 0 4.43 4.58 4.5 4.5 0 0 0 4.55-4.49 4.5 4.5 0 0 0-8.98-.09zm5.44-8.41c.37.04.62.32.64.72v.74c0 .23.12.36.34.45.46.18.93.37 1.38.58.21.09.37.08.52-.08.19-.18.36-.37.55-.54.29-.27.64-.31.93-.05.46.41.92.86 1.34 1.32.29.34.28.75-.08 1.03-.59.46-.75.94-.29 1.59.16.23.22.55.32.83.08.22.23.32.46.32h.71c.41.02.71.26.73.66.03.62.03 1.24 0 1.86-.02.39-.33.63-.77.66l-.68.01c-.25-.01-.38.11-.46.35-.16.44-.34.87-.55 1.29-.12.26-.11.44.09.63.17.15.32.32.48.48.28.29.34.65.07.95-.42.48-.87.93-1.35 1.36a.66.66 0 0 1-.98-.08c-.47-.63-.98-.75-1.64-.3-.22.16-.51.22-.77.31-.24.08-.35.23-.35.47v.71c-.01.35-.21.67-.55.69-.7.04-1.4.04-2.1 0-.3-.01-.51-.37-.53-.75a6.83 6.83 0 0 1 0-.64c.01-.25-.1-.39-.33-.48a33.9 33.9 0 0 1-1.39-.58c-.2-.1-.36-.08-.52.08l-.5.5c-.3.29-.67.35-.98.08-.48-.44-.94-.9-1.37-1.38-.24-.26-.18-.66.08-.94.16-.18.34-.35.52-.52.15-.16.16-.32.07-.53-.2-.44-.39-.89-.57-1.35-.09-.25-.23-.37-.5-.36h-.64c-.45-.02-.73-.21-.76-.66a13.1 13.1 0 0 1-.01-1.88c.02-.4.35-.63.75-.64h.68c.24 0 .39-.11.47-.34.18-.47.38-.93.58-1.39.09-.2.08-.37-.08-.53-.18-.18-.37-.35-.54-.54-.25-.28-.29-.66-.04-.93.42-.47.87-.92 1.33-1.34.29-.27.66-.23.96.03.19.16.35.34.53.52.16.16.32.19.54.09.45-.2.9-.39 1.36-.56.25-.09.37-.24.36-.5l-.01-.61c.01-.47.27-.77.73-.82.29-.04.59-.05.91-.08l.91.09z"/></symbol><symbol id="icon_icon-ui-2" viewBox="0 0 38 24"><path d="M15.08 14l1.79 5.68c.07-.15.11-.21.13-.29l.88-2.48c.07-.17.03-.29-.05-.44-.22-.38-.45-.76-.58-1.17-.22-.67.06-1.15.75-1.26.4-.06.83-.01 1.21.08.45.12.63.52.56.97-.09.53-.36.96-.63 1.4-.06.09-.11.22-.09.3.32.94.66 1.88 1.06 2.83l1.76-5.58c.76.4 1.48.81 2.23 1.16a11 11 0 0 0 1.92.69 2.39 2.39 0 0 1 1.91 2.1c.17 1.06.12 2.12-.03 3.19-.03.21-.14.34-.33.44a17.2 17.2 0 0 1-4.76 1.68c-1.87.39-3.77.52-5.67.39a19.12 19.12 0 0 1-7.52-1.94c-.41-.21-.59-.49-.59-.91 0-.93-.08-1.86.02-2.77.12-1.13.75-1.88 1.92-2.17 1.37-.35 2.64-.98 3.84-1.73l.27-.17M14 6.49c.01-.99.06-1.97.43-2.9a3.98 3.98 0 0 1 3.3-2.53 4.98 4.98 0 0 1 2.17.14 3.8 3.8 0 0 1 2.79 2.81c.51 2 .45 4.01-.32 5.95a3.79 3.79 0 0 1-2.98 2.53c-2.44.42-4.23-.7-4.98-3.07A9.43 9.43 0 0 1 14 6.49"/><path d="M14.26 13.41a15.8 15.8 0 0 1-3.88 1.67c-1.18.3-1.8 1.09-2.05 2.23-.08.36-.11.72-.16 1.12h-1.3c-1.96-.05-3.86-.4-5.68-1.18-.3-.12-.6-.26-.87-.43-.12-.07-.27-.23-.27-.35-.03-.81-.09-1.63-.01-2.43.07-.82.56-1.37 1.4-1.58a10.6 10.6 0 0 0 2.94-1.3l.26-.16 1.37 4.35.14-.31c.21-.59.42-1.18.61-1.78.04-.11.01-.28-.04-.4-.13-.32-.32-.61-.43-.94-.13-.43.07-.77.51-.87.25-.06.53-.07.77-.02.58.1.79.47.59 1.03-.1.28-.27.55-.41.82-.04.08-.1.18-.08.25.25.72.51 1.44.83 2.16l1.36-4.27c.36.21.69.43 1.04.58.75.32 1.5.62 2.27.89.48.17.87.42 1.09.92M4 4.99c0-.57.04-1.36.37-2.1C4.93 1.61 5.98 1.05 7.31 1c2.05-.07 3.43 1.27 3.54 3.32.05.99.03 1.96-.23 2.92-.06.22-.14.44-.23.66-.56 1.32-1.6 1.97-3.07 1.95A3.03 3.03 0 0 1 4.45 7.8 7.3 7.3 0 0 1 4 4.99m19 8.42c1.26.7 2.51 1.33 3.88 1.67 1.19.3 1.81 1.09 2.06 2.23.07.36.1.72.16 1.12h1.29a15.15 15.15 0 0 0 6.56-1.61c.12-.07.26-.23.26-.35.03-.81.09-1.63.02-2.43-.08-.82-.57-1.37-1.41-1.58a10.6 10.6 0 0 1-2.94-1.3l-.25-.16-1.38 4.35c-.07-.15-.11-.23-.13-.31-.21-.59-.43-1.18-.62-1.78-.04-.11-.01-.28.05-.4.13-.32.32-.61.42-.94.14-.43-.07-.77-.51-.87a1.82 1.82 0 0 0-.77-.02c-.58.1-.79.47-.59 1.03.11.28.28.55.41.82.04.08.1.18.08.25-.24.72-.51 1.44-.83 2.16l-1.35-4.27c-.37.21-.69.43-1.05.58-.74.32-1.5.62-2.26.89-.49.17-.87.42-1.1.92M33.43 7.8a3.05 3.05 0 0 1-2.87 2.05c-1.48.02-2.51-.63-3.08-1.95a5.75 5.75 0 0 1-.23-.66 9.24 9.24 0 0 1-.23-2.92C27.14 2.27 28.51.93 30.56 1c1.34.05 2.38.61 2.94 1.89.33.74.37 1.53.37 2.1a7.13 7.13 0 0 1-.44 2.81"/></symbol><symbol id="icon_icon-ui-3" viewBox="0 0 34 27"><path d="M10.52 23.25c.01.38.22.64.52.63.32-.01.51-.26.51-.66 0-.27-.02-.55.01-.83.01-.08.12-.2.21-.22.37-.11.75-.16 1.11-.28a3.5 3.5 0 0 0 2.46-3.44c-.02-1.51-.92-2.67-2.46-3.17-.37-.12-.74-.22-1.1-.35-.09-.04-.22-.16-.22-.24l-.01-3.17c.4.03.91.41 1.09.78.11.22.19.45.27.68.21.56.74.85 1.27.7.55-.16.89-.71.73-1.28a3.13 3.13 0 0 0-1.99-2.24c-.43-.16-.9-.24-1.38-.36V8.79c0-.4-.18-.61-.5-.61s-.51.21-.51.59v1.07c-.31.05-.57.09-.83.15-1.61.37-2.59 1.5-2.65 3.02-.05 1.28.37 2.31 1.52 2.94.51.28 1.08.45 1.63.65.22.08.35.16.33.43-.03.6 0 1.2 0 1.8v1.69a2.1 2.1 0 0 1-1.34-1.09c-.15-.34-.26-.7-.4-1.05-.18-.47-.52-.68-1.08-.65-.42.02-.85.34-.93.75-.05.25-.05.53.01.79a3.44 3.44 0 0 0 1.96 2.42c.54.25 1.14.38 1.77.59v.97zm10.54-7.27zM19.72 4.11c.35-.08.71-.13 1.07-.2.24-.06.5-.14.52-.44.02-.31-.24-.44-.47-.47-.41-.06-.84-.1-1.23-.04-1.19.19-2.31.53-2.78 1.87-.42 0-.86-.02-1.29.01-.12.01-.23.15-.34.23.12.08.22.19.34.24.11.04.24.01.35.01h.97c.21.86.82 1.31 1.59 1.58.85.31 1.73.39 2.62.32 1.28-.1 2.43-.45 3.04-1.75.04-.08.21-.14.31-.14l2.91-.01c.07 0 .14.02.2.03l.04.09c-.23.14-.45.31-.7.4-.29.11-.62.14-.93.22-.25.07-.57.12-.58.46 0 .35.33.42.59.47.81.17 1.54-.1 2.26-.42.53-.24.88-.66.99-1.25h1.08c.23-.01.57.04.56-.26-.01-.27-.35-.24-.58-.25h-1.07c-.2-.81-.75-1.23-1.46-1.47a6.45 6.45 0 0 0-2.76-.23c-1.1.1-1.99.56-2.55 1.57-.05.08-.21.13-.32.13h-3.58c.34-.45.76-.6 1.2-.7zm-6.04-.88a6.96 6.96 0 0 1 3.07-2.11 17.25 17.25 0 0 1 7.6-1.07c1.69.1 3.34.42 4.92 1.05 1.09.44 2.11 1 2.92 1.9 1.16 1.28 1.18 2.82.03 4.12a8.04 8.04 0 0 1-3.58 2.15 18.38 18.38 0 0 1-7.83.75c-.37-.03-.58-.18-.78-.48a10.65 10.65 0 0 0-6.76-4.42l-.15-.04-.12-.04c.01-.7.27-1.29.68-1.81zM20 21.36l1.44-3.39c3.82.13 7.55-.39 10.76-2.97.42.65.55 1.37.34 2.15-.2.74-.64 1.32-1.21 1.81a9.75 9.75 0 0 1-4 1.97c-2.43.65-4.89.75-7.33.43"/><path d="M32.9 8c.33.77.32 1.48.01 2.19-.32.74-.87 1.3-1.52 1.77a10.65 10.65 0 0 1-3.77 1.67c-1.78.45-3.59.61-5.42.53-.2-.01-.28-.08-.34-.28-.26-.9-.57-1.78-.86-2.68l.23.01c3.08.22 6.09-.05 8.95-1.31A8.17 8.17 0 0 0 32.9 8"/><path d="M32.83 11c.4.96.27 1.83-.26 2.65a5.38 5.38 0 0 1-1.87 1.71 12.4 12.4 0 0 1-4.83 1.58c-1.18.15-2.38.14-3.57.21l-.3-.02v-2.86h.51c2.37.02 4.7-.25 6.93-1.1a8.6 8.6 0 0 0 3.27-2.07c.02-.03.06-.05.12-.1M12 17c1.26.32 1.79.9 1.72 1.88-.06.84-.78 1.54-1.72 1.64zm-1.59-2.96c-.94-.2-1.44-.77-1.41-1.59.03-.76.59-1.34 1.41-1.45zM18 5h3.58c-.45.78-1.14.92-1.92.87C19 5.83 18.38 5.69 18 5m6-.29c.5-1.02 2.78-.87 3.03 0z"/></symbol><symbol id="icon_icon-ui-4" viewBox="0 0 32 29"><path d="M26 10.46v16.81h4.47V10.46L28.23 8zM1 25.51v2.69h4.47V21zm7 2.7h4.47V15L8 19.52zm6-.86h4.47v-8.99L14 14zm6 .85h4.47V13L20 17.9z"/><path d="M31.53.05a.75.75 0 0 0-.26-.04V0h-6.36v1.47h4.68L18.21 13.81l-4.79-4.67a.73.73 0 0 0-1.03.01L0 21.66l1.04 1.04 11.88-12 4.8 4.69a.7.7 0 0 0 .53.21c.2 0 .39-.09.53-.24L30.53 2.61v4.24H32V.73c0-.3-.19-.57-.47-.68"/></symbol><symbol id="icon_icon-ui-5" viewBox="0 0 34 32"><path d="M33 17.12l-.57 2.33-.35 1.51c-.11.5-.49.75-1 .66-.66-.12-1.31-.26-1.96-.4-.09-.01-.17-.08-.23-.14l-2.69-2.55a.38.38 0 0 1-.11-.28c.36-3.88-2.14-7.12-6.08-7.88a1.17 1.17 0 0 1-.33-.11c-3.56-1.8-8.06.37-8.7 4.21-.15.86-.11 1.72.09 2.58.1.42.02.88.07 1.31a7.22 7.22 0 0 0 5.57 6.23c.81.19 1.63.29 2.46.2.26-.03.45.02.63.2.61.58 1.25 1.12 1.84 1.71.84.84 1.65 1.71 2.51 2.6-.25.13-.49.28-.76.39-.35.13-.71-.01-.93-.34-.33-.47-.64-.95-.95-1.43-.34-.5-.86-.72-1.47-.62-.61.11-1.22.19-1.82.31-.56.11-.93.43-1.05.99a75.1 75.1 0 0 0-.35 1.6c-.14.66-.5.89-1.16.75l-4.22-.92c-.55-.12-.77-.46-.65-1l.39-1.78c.11-.52-.06-.94-.5-1.25-.53-.37-1.07-.74-1.63-1.08a1.3 1.3 0 0 0-1.44-.01l-1.5.93c-.52.32-.96.22-1.3-.28l-2.32-3.54c-.32-.49-.24-.87.26-1.19.49-.31.99-.6 1.47-.92.49-.31.68-.78.6-1.33-.09-.59-.19-1.18-.31-1.77a1.31 1.31 0 0 0-1.03-1.06c-.57-.14-1.14-.24-1.71-.36-.62-.12-.87-.44-.74-1.03l.98-4.34c.11-.47.48-.68.98-.58l1.83.37c.57.11 1.03-.05 1.36-.52L7.3 7.72c.3-.43.31-.87.03-1.3L6.3 4.86c-.26-.39-.2-.79.2-1.05l3.83-2.39c.44-.28.89-.17 1.18.25.34.49.66.99.99 1.48.3.46.72.67 1.29.57.65-.11 1.31-.19 1.95-.32.58-.13.93-.51 1.06-1.07.14-.56.25-1.13.38-1.69.11-.5.47-.72.99-.61l4.41.95c.53.11.76.46.65.97l-.39 1.78c-.12.53.05.96.5 1.27.51.36 1.04.71 1.57 1.06.48.31.96.32 1.46.02l1.54-.93c.52-.31.95-.21 1.28.28l2.29 3.49c.4.62.31.99-.34 1.38l-1.35.81c-.51.31-.75.84-.65 1.4l.3 1.67c.1.61.47.98 1.06 1.14.57.16 1.16.28 1.73.44.27.08.51.25.77.37z"/><path d="M28.95 28.56c-.02.68.53 1.28 1.18 1.29.63.01 1.22-.57 1.23-1.19 0-.64-.54-1.19-1.17-1.2-.62-.02-1.22.51-1.24 1.1zm-13.33-9.99a2.87 2.87 0 0 0 3.03.67 2.79 2.79 0 0 0 2-2.34c.14-.94-.2-1.75-.87-2.42-.69-.7-1.4-1.37-2.11-2.06l-.26-.27c.51-.05.95-.12 1.4-.14 3.03-.17 6.54 2.49 5.97 6.35-.08.55.07.97.49 1.38 1.58 1.54 3.12 3.11 4.7 4.65.72.71 1.5 1.37 2.23 2.07.86.82 1.13 1.82.88 2.97-.36 1.73-3.01 3.07-4.94 1.39-.89-.78-1.73-1.61-2.58-2.43-.6-.57-1.18-1.16-1.77-1.73-.99-.96-2-1.9-2.98-2.86-.34-.34-.72-.42-1.18-.37a6.44 6.44 0 0 1-3.41-.56 5.5 5.5 0 0 1-2.95-6.6c.81.8 1.56 1.57 2.35 2.3z"/></symbol><symbol id="icon_icon-ui-6" viewBox="0 0 28 32"><path d="M3.03 0A3.05 3.05 0 0 0 0 3.05v21.33a3.05 3.05 0 0 0 3.03 3.05H9.1L13.65 32l4.55-4.57h6.06a3.05 3.05 0 0 0 3.03-3.05V3.05A3.05 3.05 0 0 0 24.26 0zm9.1 24.38v-3.05h3.03v3.05zm4.85-10.36c-1.21 1.07-1.82 1.98-1.82 4.27h-3.03v-.77c0-1.67.61-3.2 1.82-4.26l1.82-1.98c.61-.46.91-1.22.91-2.14a3.04 3.04 0 0 0-3.03-3.04 3.05 3.05 0 0 0-3.04 3.04H7.58a6.1 6.1 0 0 1 6.07-6.09 6.1 6.1 0 0 1 6.06 6.09c0 1.37-.6 2.59-1.36 3.51z"/></symbol><symbol id="icon_icon-ui-7" viewBox="0 0 34 32"><path d="M19.88 2.27H5.52l.45.27c1.7.96 3.39 1.94 5.1 2.89.53.29.77.7.76 1.31v17.14h8.03v-6.15h2.25v7.06c0 .95-.41 1.36-1.35 1.36h-8.93v4.1c0 1.08-.87 1.59-1.81 1.06l-8.73-4.95c-.1-.05-.18-.12-.28-.16C.18 25.92 0 25.31 0 24.48c.02-7.73.01-15.47.01-23.2C.01.46.47 0 1.28 0h19.56c.79 0 1.26.43 1.26 1.2l.01 8.8-.02.21h-2.21z"/><path d="M25.57 12.6c0-.95-.01-1.86.01-2.76.01-.21.07-.46.19-.62.22-.3.61-.28.98-.02l5.67 4.12c.12.09.25.17.37.27.45.35.46.83 0 1.17-.9.67-1.81 1.32-2.72 1.98-1.09.79-2.18 1.57-3.26 2.37-.27.2-.54.34-.88.16-.31-.17-.36-.47-.36-.79v-2.73h-.47c-1.83 0-3.65.01-5.48 0-1.1-.01-1.84-.97-1.56-1.99.19-.71.81-1.16 1.62-1.16h5.89"/></symbol><symbol id="icon_logo" viewBox="0 0 58 22"><path d="M45.25 14.92c0 1.44 1.65 2.14 3.34 2.14 1.56 0 3.23-.7 3.23-1.97 0-1.99-2.34-2.08-3.88-2.16-3.86-.24-7.72-1.76-7.72-6.11 0-4.53 3.88-6.82 8.2-6.82 4.05 0 8.19 2.29 8.11 6.82h-5.16c-.03-1.44-1.39-2.02-2.87-2.02-1.23 0-2.86.32-2.86 1.91 0 1.39 1.21 1.74 3.23 1.93 4.49.38 8.4 1.44 8.4 6.49 0 4.38-4.32 6.67-8.62 6.67-4.46 0-8.74-2.21-8.65-6.88zM22.95 1.01h-.08c-.96 0-1.74.71-1.87 1.63v19.21h5.51v-5.38h3.79c5.01 0 7.57-3.82 7.57-7.64.09-3.92-2.51-7.82-7.57-7.82-2.47-.02-4.9 0-7.35 0zm3.47 10.72V5.75h3.88c1.5 0 2.3 1.45 2.3 2.96 0 1.52-.84 3.02-2.3 3.02zm-12.67 2.72a7.22 7.22 0 0 0 3.12-6.07c0-3.66-2.49-7.37-7.59-7.37-2.45-.02-4.86 0-7.31 0h-.08C.85 1.01 0 1.85 0 2.87v19h5.51V4.76c.45.11.84.41 1.1.28.09-.04.11-.28.18-.36.06-.11.19-.35.3-.39.2-.11.65-.09.85-.02.15.04.39.23.5.34.13.17.17.67.32.84.2.19.96.36.98.43.02.04.35.23.48.27.13.07.45.07.58.18.13.08.33.51.35.53l.17.28a3.1 3.1 0 0 0 .96.77l.58.39c.09.06.3.17.33.28.02.06-.03.17-.05.23-.04.09-.17.22-.24.3-.04.07-.1.22-.15.28l-.26.34c-.06.07-.17.2-.24.26-.08.07-.28.13-.39.15a5.1 5.1 0 0 1-.5.02l-.56.07c-.11.02-.32.1-.41.17-.17.08-.46.34-.61.45-.09.06-.24.19-.32.23-.11.05-.42 0-.48 0-.07 0-.37.18-.46.28-.1.13-.28.41-.37.56l-.28.6-.21.69c-.03.04-.07.19-.11.21-.05.02-.15-.06-.2-.04-.15.06-.21.41-.28.56-.04.1-.04.25.09.47.13.21 1.26.98 1.26.98l3.62 6.52h5.83v-.77z"/><path d="M10.31 9.19c-.22-.04-.37.26-.29.41.11.19.33.41.55.43.3.02.65.02.93-.07.15-.04.43-.3.15-.32-.15-.02-.3.04-.45.04-.11 0-.48-.04-.35-.25.09-.11.41 0 .52.02.19.02.82.15.61-.22-.07-.1-.24-.08-.29-.19-.08-.17-.08-.47-.21-.6-.07-.06-.18-.08-.24-.13-.11-.08-.2-.17-.3-.23-.18-.11-.52-.13-.57.1-.06.18.54 1.12-.06 1.01-.02-.02.04 0 0 0m2.1-.65c.06-.02.13-.06.13-.13-.02-.1-.15-.02-.22-.06-.15-.06-.04-.3-.17-.34-.24-.09-.22.68.26.53.04-.02-.02 0 0 0m-1.98-2.52c-.15-.07-.31.06-.39.17-.13.17.11.28.24.34.13.07.3.11.39-.06.11-.22-.03-.37-.24-.45-.05-.02.11.02 0 0"/></symbol></svg>