<svg xmlns="http://www.w3.org/2000/svg" width="176" height="57" viewBox="0 0 176 57"><path fill="#202325" d="M4 0h168v53a4 4 0 0 1-4 4H8a4 4 0 0 1-4-4zm0 0v4a4 4 0 0 0-4-4zm172 0v4a4 4 0 0 0-4-4z"/><path fill="#f9ae17" d="M83.01 32.17c0 1.93 2.22 2.9 4.47 2.9 2.1 0 4.32-.97 4.32-2.66 0-2.7-3.15-2.82-5.2-2.94-5.16-.32-10.32-2.37-10.32-8.25 0-6.12 5.2-9.22 10.96-9.22 5.44 0 10.96 3.1 10.84 9.22h-6.89c-.04-1.94-1.85-2.74-3.83-2.74-1.65 0-3.82.44-3.82 2.58 0 1.89 1.61 2.33 4.31 2.61 6 .53 11.24 1.94 11.24 8.78 0 5.92-5.76 9.02-11.53 9.02-5.96 0-11.68-2.98-11.56-9.3zM53.6 13.01l-.12.01A2.5 2.5 0 0 0 51 15.23V41.2h7.37v-7.29h5.08c6.69 0 10.11-5.15 10.11-10.31.12-5.31-3.34-10.58-10.11-10.58-3.32-.03-6.56-.02-9.85-.01zm4.65 14.5v-8.09h5.2c2.01 0 3.06 1.97 3.06 3.98 0 2.06-1.12 4.11-3.06 4.11zm-16.88 3.7A9.87 9.87 0 0 0 45.56 23c0-4.95-3.34-9.98-10.15-9.98-3.27-.03-6.5-.02-9.77-.01l-.13.01A2.51 2.51 0 0 0 23 15.53V41.2h7.37V18.08c.6.15 1.13.54 1.47.37.12-.06.15-.38.22-.5.08-.15.26-.46.41-.54a2 2 0 0 1 1.14-.03c.19.06.53.32.66.48.18.23.23.9.44 1.11.25.25 1.28.51 1.31.57.03.06.46.31.63.38.19.07.62.1.78.22.17.13.44.7.47.73.04.03.16.3.23.39.09.13.32.38.45.48.19.17.61.43.81.56.19.13.6.38.78.52.12.08.4.23.44.36.03.08-.03.25-.06.32-.05.12-.24.31-.31.42l-.19.37a5.2 5.2 0 0 1-.69.8 1.6 1.6 0 0 1-.51.2c-.17.04-.64.04-.67.04-.02.01-.56.06-.74.1a3 3 0 0 0-.55.22c-.23.12-.62.45-.83.6-.11.08-.31.27-.44.31-.15.05-.55-.01-.63-.01-.09-.01-.5.24-.62.37-.16.16-.38.56-.49.75-.1.2-.29.6-.37.81-.09.23-.2.7-.29.92-.04.07-.08.25-.15.28-.06.03-.2-.08-.27-.05-.19.1-.3.56-.36.77-.05.15-.07.33.11.63a13.5 13.5 0 0 0 1.69 1.35l4.84 8.82h7.81v-1.05z"/><path fill="#f9ae17" d="M36.58 20.02c-.22-.08-.41.08-.53.24-.17.23.15.39.31.46.18.08.42.14.53-.08.16-.28-.02-.5-.31-.62-.07-.03.13.05 0 0"/><path fill="#fff" d="M116.38 14.19l-.21.71a2.8 2.8 0 0 0-.95-.2c-.46 0-.82.14-1.07.4-.25.26-.38.64-.38 1.13v2.52H113v-4.67h.63l.09.86h.04a2 2 0 0 1 .69-.72c.25-.15.55-.22.91-.22.33 0 .67.06 1.02.19m4.86 4.47l-.12-.62h-.04c-.3.47-.77.71-1.42.71-1.11 0-1.66-.57-1.66-1.71V14h.77v3c0 .74.34 1.11 1.01 1.11.45 0 .79-.13.99-.4.21-.26.32-.69.32-1.29V14h.77v4.66zm2.76-.12v-.71c.55.25 1.07.37 1.57.37.78 0 1.17-.23 1.17-.69 0-.16-.07-.3-.21-.42a3.6 3.6 0 0 0-.96-.45 3.33 3.33 0 0 1-1.25-.68c-.17-.2-.25-.44-.25-.72 0-.39.16-.69.47-.91.32-.22.75-.33 1.31-.33s1.09.1 1.57.31l-.25.64a3.69 3.69 0 0 0-1.36-.31c-.67 0-1 .19-1 .57 0 .17.07.31.21.41.15.1.47.25.99.43.6.22.99.43 1.19.64.2.21.3.47.3.78 0 .42-.17.76-.5 1-.33.24-.8.36-1.41.36-.7 0-1.23-.1-1.59-.29m6 0v-.71c.55.25 1.07.37 1.57.37.78 0 1.17-.23 1.17-.69 0-.16-.07-.3-.21-.42a3.6 3.6 0 0 0-.96-.45 3.33 3.33 0 0 1-1.25-.68c-.17-.2-.25-.44-.25-.72 0-.39.16-.69.47-.91.32-.22.75-.33 1.31-.33s1.09.1 1.57.31l-.25.64a3.69 3.69 0 0 0-1.36-.31c-.67 0-1 .19-1 .57 0 .17.07.31.21.41.15.1.47.25.99.43.6.22.99.43 1.19.64.2.21.3.47.3.78 0 .42-.17.76-.5 1-.33.24-.8.36-1.41.36-.7 0-1.23-.1-1.59-.29m8.3-5.06c0 .17-.04.29-.13.37a.47.47 0 0 1-.32.12c-.3 0-.45-.16-.45-.49 0-.32.15-.48.45-.48.3 0 .45.16.45.48zm-.84 5.49l-1.46.09v.52h3.73v-.52l-1.49-.09v-4.05h-1.92v.52l1.14.09zm7.56-2.5l-.69.03c-.55.02-.95.11-1.18.26a.77.77 0 0 0-.35.69c0 .51.29.76.85.76.42 0 .75-.12 1-.35.25-.23.37-.55.37-.97zm.21 2.28l-.16-.65h-.03a1.8 1.8 0 0 1-.67.57c-.23.11-.53.16-.89.16-.46 0-.82-.12-1.09-.36a1.36 1.36 0 0 1-.39-1.03c0-.94.72-1.43 2.17-1.47l.86-.03v-.3c0-.66-.35-1-1.04-1-.41 0-.88.12-1.39.35l-.27-.58c.56-.27 1.1-.41 1.63-.41.64 0 1.11.12 1.4.37.28.25.43.64.43 1.18v3.2zm5.86 0v-3c0-.74-.34-1.11-1.01-1.11-.87 0-1.31.56-1.31 1.69v2.42H148v-4.67h.62l.12.63h.04c.29-.47.77-.71 1.43-.71 1.1 0 1.65.57 1.65 1.7v3.05zm-37.32 8.66c0 .64.1 1.1.3 1.37.2.27.51.41.94.41.77 0 1.16-.6 1.16-1.79 0-1.17-.39-1.76-1.17-1.76-.43 0-.74.13-.93.37-.19.25-.29.66-.3 1.22zm-.05 1.75c.04.36.05.59.05.68v2H113v-6.76h.62l.12.63h.03c.31-.47.77-.71 1.37-.71.57 0 1.02.21 1.34.63.33.43.49 1.02.49 1.78s-.16 1.36-.49 1.78c-.33.43-.77.64-1.34.64a1.6 1.6 0 0 1-1.37-.67zm7.3-1.69l-.69.03c-.55.02-.95.11-1.18.26a.77.77 0 0 0-.35.69c0 .51.29.76.85.76.42 0 .75-.12 1-.35.25-.23.37-.55.37-.97zm.21 2.28l-.16-.65h-.03a1.8 1.8 0 0 1-.67.57c-.23.11-.53.16-.89.16-.46 0-.82-.12-1.09-.36a1.36 1.36 0 0 1-.39-1.03c0-.94.72-1.43 2.17-1.47l.86-.03v-.3c0-.66-.35-1-1.04-1-.41 0-.88.12-1.39.35l-.27-.58c.56-.27 1.1-.41 1.63-.41.64 0 1.11.12 1.4.37.28.25.43.64.43 1.18v3.2zm7.15-4.56l-.21.71a2.8 2.8 0 0 0-.95-.2c-.46 0-.82.14-1.07.4-.25.26-.38.64-.38 1.13v2.52H125v-4.67h.63l.09.86h.04a2 2 0 0 1 .69-.72c.25-.15.55-.22.91-.22.33 0 .67.06 1.02.19m2.33 2.07l.58-.65 1.68-1.67h.94l-2.1 2.02 2.22 2.65h-.91l-1.81-2.14-.54.34v1.8H130V23h.77v3.03l-.07 1.23zm7.59-3.78c0 .17-.04.29-.13.37a.47.47 0 0 1-.32.12c-.3 0-.45-.16-.45-.49 0-.32.15-.48.45-.48.3 0 .45.16.45.48zm-.84 5.49l-1.46.09v.52h3.73v-.52l-1.49-.09v-4.05h-1.92v.52l1.14.09zm7.63.78v-3c0-.74-.34-1.11-1.01-1.11-.87 0-1.31.56-1.31 1.69v2.42H142v-4.67h.62l.12.63h.04c.29-.47.77-.71 1.43-.71 1.1 0 1.65.57 1.65 1.7v3.05zm5-2.2c-.64 0-.96-.32-.96-.97 0-.68.31-1.02.95-1.02.64 0 .96.33.96 1.01 0 .65-.32.98-.95.98zm.42 2.12c.42 0 .7.04.84.13s.21.25.21.5c0 .63-.56.95-1.68.95-.77 0-1.15-.25-1.15-.74 0-.56.33-.84.98-.84zm.24-4.59c-.19-.05-.4-.08-.64-.08-.56 0-.99.14-1.29.42-.3.28-.45.67-.45 1.19 0 .29.07.55.21.79.15.24.34.42.6.52-.38.23-.57.5-.57.82 0 .3.14.52.41.65-.68.16-1.02.55-1.02 1.15 0 .41.16.73.48.95.32.23.79.35 1.41.35 1.6 0 2.4-.54 2.4-1.6 0-.41-.13-.72-.39-.94-.26-.22-.64-.33-1.13-.33h-.79c-.46 0-.69-.11-.69-.35 0-.22.14-.41.43-.57.08.02.21.03.36.03.54 0 .96-.14 1.26-.41.3-.27.45-.63.45-1.09 0-.36-.09-.66-.27-.9l.83-.12v-.48zM113 39.54v-.71c.55.25 1.07.37 1.57.37.78 0 1.17-.23 1.17-.69 0-.16-.07-.3-.21-.42a3.6 3.6 0 0 0-.96-.45 3.33 3.33 0 0 1-1.25-.68c-.17-.2-.25-.44-.25-.72 0-.39.16-.69.47-.91.32-.22.75-.33 1.31-.33s1.09.1 1.57.31l-.25.64a3.69 3.69 0 0 0-1.36-.31c-.67 0-1 .19-1 .57 0 .17.07.31.21.41.15.1.47.25.99.43.6.22.99.43 1.19.64.2.21.3.47.3.78 0 .42-.17.76-.5 1-.33.24-.8.36-1.41.36-.7 0-1.23-.1-1.59-.29m5-4.54h.8l1.11 2.78c.23.58.36.99.38 1.23h.03c.06-.32.19-.73.38-1.24l1.01-2.77h.81l-2.02 5.27a3.2 3.2 0 0 1-.66 1.11c-.26.25-.6.37-1.05.37-.24 0-.48-.02-.71-.07v-.62c.17.04.36.05.57.05.28 0 .49-.05.64-.17.15-.12.29-.32.41-.6l.24-.64zm6 4.54v-.71c.55.25 1.07.37 1.57.37.78 0 1.17-.23 1.17-.69 0-.16-.07-.3-.21-.42a3.6 3.6 0 0 0-.96-.45 3.33 3.33 0 0 1-1.25-.68c-.17-.2-.25-.44-.25-.72 0-.39.16-.69.47-.91.32-.22.75-.33 1.31-.33s1.09.1 1.57.31l-.25.64a3.69 3.69 0 0 0-1.36-.31c-.67 0-1 .19-1 .57 0 .17.07.31.21.41.15.1.47.25.99.43.6.22.99.43 1.19.64.2.21.3.47.3.78 0 .42-.17.76-.5 1-.33.24-.8.36-1.41.36-.7 0-1.23-.1-1.59-.29m9.74-.27v.59c-.36.09-.72.13-1.07.13-1.02 0-1.54-.49-1.54-1.46v-2.7H130v-.4l1.13-.21.33-1.22h.45v1.24h1.86v.59h-1.86v2.7c0 .55.27.83.81.83.27 0 .61-.03 1.02-.09m5.52-2.33c0-.87-.39-1.3-1.16-1.3-.78 0-1.21.43-1.28 1.3zm.83.62h-3.29c.03 1.07.51 1.6 1.46 1.6.56 0 1.08-.11 1.58-.33v.68c-.47.22-.99.32-1.55.32-.69 0-1.25-.21-1.67-.63a2.43 2.43 0 0 1-.62-1.75c0-.75.19-1.35.58-1.79.38-.44.89-.66 1.54-.66.6 0 1.08.19 1.43.57.36.38.54.88.54 1.51zm5.67 2.19v-3c0-.42-.04-.71-.11-.87-.08-.16-.2-.24-.38-.24-.24 0-.42.12-.54.35-.11.24-.16.63-.16 1.18v2.58h-.69v-3c0-.74-.17-1.11-.53-1.11a.52.52 0 0 0-.51.34c-.1.22-.15.67-.15 1.35v2.42H142v-4.67h.54l.11.63h.05c.19-.47.47-.71.85-.71.46 0 .76.26.91.77h.02c.22-.51.53-.77.93-.77.37 0 .63.13.79.39.17.26.25.7.25 1.31v3.05zm2.24-.21v-.71c.55.25 1.07.37 1.57.37.78 0 1.17-.23 1.17-.69 0-.16-.07-.3-.21-.42a3.6 3.6 0 0 0-.96-.45 3.33 3.33 0 0 1-1.25-.68c-.17-.2-.25-.44-.25-.72 0-.39.16-.69.47-.91.32-.22.75-.33 1.31-.33s1.09.1 1.57.31l-.25.64a3.69 3.69 0 0 0-1.36-.31c-.67 0-1 .19-1 .57 0 .17.07.31.21.41.15.1.47.25.99.43.6.22.99.43 1.19.64.2.21.3.47.3.78 0 .42-.17.76-.5 1-.33.24-.8.36-1.41.36-.7 0-1.23-.1-1.59-.29"/><path fill="none" stroke="#fff" stroke-miterlimit="50" d="M106 7v39.79"/></svg>